<svg width="313" height="287" viewBox="0 0 313 287" fill="none" xmlns="http://www.w3.org/2000/svg">
<path fill-rule="evenodd" clip-rule="evenodd" d="M236.022 135.997C238.734 135.974 241.513 138.67 243.466 140.256C238.383 136.858 230.334 136.98 224.506 136.161C218.835 135.364 213.204 134.167 207.729 132.447C207.609 132.411 195.469 128.436 199.581 126.153C210.952 119.774 225.035 136.562 236.022 135.997ZM157.116 83.6741C159.253 88.9152 168.716 114.581 159.519 116.413C152.199 117.871 145.92 102.252 145.527 97.0326C144.878 88.3424 145.274 79.6709 144.063 70.9923C149.158 74.8982 154.577 77.3825 157.116 83.6741ZM67.7385 242.404C64.2291 246.739 60.6821 251.07 56.8645 255.137C60.8747 250.167 64.7 245.172 69.2089 240.638L67.7375 242.404L67.7385 242.404ZM303.576 42.2468C301.652 39.7646 294.132 42.7971 291.979 43.284C286.073 44.6166 279.682 45.8012 274.283 43.4645C269.652 42.3007 277.148 34.2703 278.322 31.1982C279.145 29.0445 280.861 23.5841 279.435 21.3882C276.378 16.6841 269.979 22.1976 266.794 24.3706C262.128 27.5542 260.197 29.6153 261.004 23.772C261.873 17.4911 268.456 6.91165 261.796 1.34765C256.123 -3.39071 247.305 5.60671 243.878 9.2214C237.414 16.0282 234.415 23.7281 233.036 32.8929C232.713 35.0295 230.239 47.6648 228.068 45.4385C223.734 39.8699 227.165 31.694 223.743 25.6931C221.798 22.2828 219.119 20.5922 217.484 16.7549C215.87 12.9666 214.239 6.17469 209.016 5.7634C205.701 5.50363 203.512 8.24621 202.964 10.9806C201.227 17.3923 202.534 23.1654 202.422 29.6587C202.338 34.41 199.215 37.9822 200.376 42.8708C202.248 50.3221 204.69 58.1365 205.953 65.8961C206.349 68.3283 207.691 79.4011 202.929 77.2361C200.247 76.0173 200.524 65.6562 200.342 63.8354C199.904 59.4845 199.969 55.1425 197.35 51.3738C195.848 49.2133 193.359 48.3818 192.2 46.6859C188.776 41.6713 189.008 33.1711 186.181 27.6632C183.644 22.721 176.923 10.7403 171.023 9.56826C162.943 7.96266 165.983 18.961 166.51 23.7844C167.095 29.1243 167.992 33.9948 167.519 39.205C167.104 43.8045 167.433 47.5322 169.196 52.0002C172.454 60.2553 177.362 67.3751 181.48 74.8961C181.471 74.8675 181.461 74.8394 181.449 74.8122C183.761 79.227 185.685 84.7007 185.47 89.8056C185.108 98.3631 182.146 94.0059 179.546 88.1821C175.623 79.4024 173.065 70.0138 169.19 61.2353C167.809 58.1082 166.153 54.9343 163.274 52.8956C161.343 51.5283 158.952 51.86 157.453 51.0318C152.235 48.1583 133.026 15.5975 124.959 25.3034C120.604 30.544 131.418 41.747 133.698 45.6672C137.34 51.9282 141.203 56.2481 140.835 63.6794C138.717 61.7124 135.805 62.7378 133.87 61.1755C131.57 59.3166 130.925 55.3739 129.847 52.7957C126.886 45.7079 123.4 38.7288 118.768 32.6137C104.629 13.9554 107.007 42.1618 108.407 51.4769C108.677 53.2639 108.99 55.546 109.269 57.5806C109.992 62.9168 108.75 63.7833 107.987 68.5002C106.69 76.5259 116.151 87.1135 121.04 92.8627C122.548 94.6387 145.798 123.448 135.605 123.207C130.465 123.086 121.8 108.473 119.402 103.987C115.714 97.0894 113.181 83.3073 105.522 79.7293C103.116 78.6055 101.13 79.7871 98.9007 78.9005C93.6931 76.8355 90.1598 68.6828 86.3933 64.8675C78.7274 57.1034 69.3084 58.1823 75.7217 70.7788C78.2611 75.763 79.5206 79.0893 81.0801 84.5142C82.8599 90.7026 88.4476 93.8913 91.0196 99.3126C93.1444 103.794 89.8375 101.397 90.029 106.73C90.1899 111.158 97.0582 116.002 100.291 118.466C104.781 121.887 125.02 133.353 121.052 140.271C117.435 146.577 105.636 137.07 102.481 134.177C94.5891 126.944 91.4416 117.178 87.0022 107.809C84.8387 103.242 82.3624 97.6994 78.8215 94.0025C75.7166 90.7638 72.1833 90.3204 68.336 88.6463C63.8563 86.6985 44.1111 76.311 45.0214 88.864C45.6329 97.298 57.383 101.382 58.8518 109.433C53.5664 107.078 42.5035 96.3718 36.2056 102C30.126 107.434 42.1899 119.164 45.8645 123.597C48.1196 126.316 63.5587 138.552 63.2987 143.137C63.0264 147.925 57.4859 146.21 54.2847 145.575C48.8096 144.49 -0.217249 132.421 0.000724973 142.413C0.16728 150.162 19.0195 147.54 21.4552 151.933C22.3508 153.548 20.4015 154.335 20.0564 156.058C18.7941 162.375 20.8876 164.898 27.5204 165.591C21.2214 180.687 42.076 172.677 49.0869 170.269C53.8626 168.628 74.1824 161.198 75.589 171.394C76.0622 174.822 70.323 180.221 69.345 183.574C67.4603 190.043 72.2115 194.014 78.4524 191.825C82.7466 190.322 86.647 186.52 89.4019 182.997C90.9857 180.977 93.7834 174.324 96.4249 173.862C96.1617 184.813 102.549 179.152 108.375 174.446C112.733 170.926 123.589 161.357 130.066 165.163C124.995 172.202 118.065 177.807 112.525 184.453C106.462 191.733 100.152 198.532 93.1591 205.413C79.8968 218.459 66.6038 232.68 54.9351 247.1C49.2272 254.154 43.0464 260.875 36.9281 267.572C34.7194 269.987 20.855 280.823 25.7135 285.225C32.2859 291.179 43.6944 268.664 48.3858 266.059C70.6877 240.692 94.4553 216.608 116.072 190.754C115.182 193.671 116.157 201.896 120.566 201.756C119.527 204.152 116.41 207.806 117.134 210.55C118.741 216.621 121.197 211.151 123.475 211.507C127.366 212.117 124.171 219.134 123.451 221.993C120.09 235.319 119.459 249.881 118.593 263.589C118.12 271.11 124.443 291.931 135.122 283.019C140.453 278.572 141.004 267.438 141.343 261.205C141.559 257.273 139.763 246.355 142.492 242.953C147.008 245.341 152.428 256.08 155.328 259.926C161.458 268.061 166.822 273.232 177.472 273.928C202.777 275.581 172.133 246.841 175.186 244.916C177.335 243.562 192.152 256.061 194.112 257.553C198.455 260.862 211.685 268.933 216.543 262.163C220.617 256.484 210.196 246.977 207.104 243.318C204.511 240.25 202.574 236.051 199.328 232.962C196.658 230.42 193.08 228.973 190.436 226.553C187.685 224.037 187.526 220.416 184.459 217.537C181.019 214.302 176.341 211.601 172.554 208.657C166.224 203.737 157.268 197.342 156.527 188.413C170.986 190.208 180.861 205.951 190.734 215.099C195.672 219.673 201.485 225.543 208.636 223.985C211.509 223.358 208.434 222.799 212.279 222.533C213.142 222.474 214.31 222.979 215.146 223.175C221.141 224.586 226.883 226.772 232.827 228.335C236.513 229.307 248.342 233.623 251.648 230.075C257.641 223.642 231.765 207.477 227.191 203.893C223.73 201.184 219.566 198.867 216.3 196.054C213.302 193.473 212.294 190.029 208.262 188.129C203.042 185.668 196.974 184.824 191.532 182.976C184.211 180.49 178.117 176.845 172.024 172.16C169.501 170.22 163.375 166.045 164.699 162.533C166.831 156.893 176.439 164.1 179.161 165.645C187.221 170.221 194.765 177.514 204.733 180.522C215.044 183.637 220.339 193.77 229.834 198.306C233.263 199.943 235.194 200.099 238.81 199.433C242.834 198.696 244.741 198.228 249.468 199.43C253.752 200.521 274.423 207.236 272.85 197.595C272.34 194.466 267.806 193.176 265.508 191.898C260.445 189.078 255.528 185.969 250.397 183.274C247.139 181.563 242.999 180.382 240.331 177.728C237.802 175.211 237.237 172.649 233.598 171.01C228.698 168.802 221.332 169.158 217.041 166.172C212.949 163.326 209.713 159.237 205.027 156.61C201.298 154.521 180.169 146.699 180.747 143.206C181.918 136.108 205.714 149.675 207.547 150.671C219.226 157.018 230.68 165.481 242.67 171.458C246.7 173.466 249.826 172.719 253.539 173.264C258.471 173.988 263.622 177.376 268.63 178.549C272.622 179.484 283.061 181.926 281.024 174.975C279.554 169.952 270.004 165.623 266.011 162.583C261.495 159.149 257.291 155.431 252.402 152.526C251.35 151.9 249.032 151.11 248.261 150.246C246.131 147.848 247.541 144.197 244.978 141.5C247.669 144.087 250.323 145.429 253.975 145.465C254.929 145.477 256.765 144.454 257.961 144.306C261.573 143.854 265.825 145.064 269.442 145.474C274.521 146.044 300.119 145.316 286.934 136.342C281.298 132.506 274.96 129.598 268.683 127.026C263.752 125.003 257.293 123.519 253.137 120.124C248.83 116.604 248.04 114.787 241.779 113.857C235.345 112.901 226.267 113.09 221.208 108.449C210.905 98.9899 245.222 105.339 248.871 106.261C256.244 108.122 264.214 109.582 271.751 107.916C280.155 106.061 287.116 102.076 295.954 101.672C299.896 101.494 312.809 101.899 312.583 95.5663C312.362 89.3305 297.919 88.9162 294.087 88.1479C290.128 87.3548 285.628 87.0844 281.823 85.9249C278.369 84.8704 275.733 82.6428 272.368 81.3437C262.828 77.6562 254.722 82.36 245.21 81.9184C240.188 81.6849 237.794 79.7096 243.044 76.123C245.875 74.1839 250.424 74.003 253.763 73.0643C258.785 71.654 263.729 69.8554 268.687 68.2263C275.378 66.0249 312.944 54.2449 303.576 42.2468Z" fill="#89B99A"/>
</svg>
