<svg width="371" height="370" viewBox="0 0 371 370" fill="none" xmlns="http://www.w3.org/2000/svg">
<path fill-rule="evenodd" clip-rule="evenodd" d="M287.125 128.5C274.646 124.526 261.637 123.592 248.705 122.197C252.825 121.288 257.286 120.073 261.483 119.606C265.345 119.183 267.644 120.774 271.278 122.04C277.766 124.305 285.014 127.057 290.654 129.688C289.484 129.273 288.308 128.877 287.125 128.5ZM269.353 133.465C255.662 130.907 241.645 130.351 227.974 127.677C231.364 126.64 233.284 125.735 236.887 126.078C242.242 126.587 247.66 127.684 252.893 128.849C260.487 130.54 268.148 132.364 275.546 134.763C273.492 134.286 271.427 133.853 269.353 133.465ZM270.011 136.137C269.075 136.516 265.791 135.232 264.729 135.003C265.752 135.198 269.412 136.379 270.011 136.137ZM242.752 135.856C232.039 135.185 221.196 134.849 210.465 134.905C212.391 134.185 214.231 133.282 216.108 132.44C221.241 130.14 222.133 130.505 227.258 132.018C233.866 133.97 240.638 135.081 247.414 136.211C245.862 136.067 244.308 135.949 242.752 135.857L242.752 135.856ZM230.25 142.034C215.46 143.155 200.871 144.948 186.107 146.601C189.258 145.328 192.289 143.707 195.3 142.143C199.949 139.731 203.517 140.071 208.698 140.069C214.202 140.065 219.607 140.712 225.078 141.334C226.428 141.489 231.714 141.922 230.25 142.034ZM207.461 130.796C215.358 123.128 224.417 115.982 233.697 110.01C239.588 106.219 245.994 101.938 252.915 105.225C241.467 105.701 226.511 116.084 219.735 124.983C219.411 125.404 218.913 125.695 218.574 126.11C217.303 127.654 218.688 127.822 217.822 128.772C217.721 128.884 213.096 130.772 213.71 130.52C210.573 131.814 207.362 132.9 204.219 134.177C205.282 133.032 206.361 131.904 207.462 130.795L207.461 130.796ZM251.51 112.424C243.737 118.924 235.305 122.384 225.944 125.645C234.493 120.147 243.065 115.65 252.463 111.712C252.144 111.949 251.827 112.186 251.51 112.425L251.51 112.424ZM261.182 114.653C262.802 114.135 263.525 114.269 263.885 116.193C259.699 116.034 257.71 116.607 253.755 117.568C256.16 116.426 258.642 115.452 261.182 114.653ZM266.319 115.703C266.027 115.175 265.902 114.167 265.7 113.652C268.808 113.601 271.447 114.258 274.088 115.888C273.213 115.895 266.534 116.667 266.318 115.702L266.319 115.703ZM140.287 187.854C163.008 185.048 184.8 184.315 207.619 186.539C190.427 188.046 173.163 191.501 156.247 194.855C142.664 197.548 128.892 199.002 115.27 201.436C117.795 198.809 120.154 196.026 122.726 193.437C127.191 188.942 133.882 188.655 140.287 187.854ZM218.402 194.545C222.504 194.125 226.597 193.616 230.677 193.018C235.112 192.363 242.186 189.439 246.648 190.32C222.284 197.553 195.955 200.887 170.909 204.963C160.498 206.658 149.899 209.135 139.814 212.278C125.252 216.813 108.828 216.791 94.9311 223.162C99.1812 218.707 103.836 212.337 108.678 208.714C112.197 206.08 118.035 205.861 122.222 205.308C129.115 204.399 136.042 203.692 142.954 202.948C168.113 200.237 193.233 197.177 218.402 194.545ZM90.9918 218.67C88.9477 220.92 86.9581 223.219 85.0248 225.564C88.534 209.104 88.3764 191.746 90.3532 175.036C91.4711 165.588 92.5202 156.034 94.0235 146.649C95.3527 138.361 95.7067 127.069 100.15 119.909C103.466 122.989 105.917 126.258 105.259 130.735C104.411 136.493 101.932 142.026 100.778 147.738C99.482 154.156 98.6046 160.69 97.8034 167.188C96.5709 177.181 96.2832 187.347 96.8113 197.396C96.954 200.22 97.1355 203.043 97.3557 205.862C97.4524 207.093 98.0896 209.189 97.818 210.34C97.1548 213.168 93.1301 216.302 90.9918 218.67ZM115.495 150.139C117.442 140.89 118.63 130.144 122.681 121.474C124.93 116.656 127.092 114.941 130.452 120.145C132.85 123.859 129.083 132.011 127.895 136.679C124.528 149.924 122.751 163.514 120.523 176.982C119.941 180.511 119.768 184 119.393 187.534C119.08 190.463 119.161 190.289 117.473 192.494C116.389 193.919 114.678 195.129 113.369 196.379C109.94 199.656 106.464 202.89 103.07 206.205C108.233 187.733 111.555 168.885 115.495 150.139ZM369.515 192.147C366.386 187.986 362.418 184.234 358.359 181.018C352.736 176.559 345.849 173.951 340.234 169.663C335.511 166.052 331.609 161.248 326.782 157.593C319.115 151.791 311.224 146.965 302.245 143.479C313.68 147.381 324.647 152.078 333.807 160.175C334.581 160.861 341.291 169.452 342.68 168.631C343.63 168.077 339.603 161.858 338.764 160.41C332.574 149.762 319.871 142.949 309.833 136.111C298.497 128.389 286.117 124.056 273.2 119.785C284.936 120.433 294.822 123.447 304.652 130.05C309.488 133.295 313.961 137.087 318.945 140.101C323.363 142.773 327.608 145.237 331.42 148.822C335.691 152.842 339.122 157.221 341.957 162.356C343.022 164.288 348.223 175.981 348.363 168.553C348.433 164.893 343.81 159.677 341.94 157.033C338.785 152.578 335.125 148.565 331.295 144.685C324.781 138.09 318.562 131.246 310.829 126.044C306.431 123.083 301.825 120.738 296.794 119.047C292.908 117.739 288.918 116.801 284.841 116.339C280.968 115.901 280.595 115.947 277.514 113.947C274.866 112.226 272.606 110.385 269.644 109.158C266.625 107.906 264.055 107.727 261.808 106.019C259.159 104 258.131 101.632 254.711 100.368C251.568 99.2044 248.351 99.4605 245.071 99.7225C234.224 100.587 223.21 103.337 214.236 109.753C206.305 115.424 200.912 124.476 197.079 133.3C194.962 138.17 196.398 137.987 190.713 140.786C184.737 143.73 178.794 146.622 172.979 149.906C182.567 137.989 190.902 124.795 201.413 113.627C207.033 107.661 212.546 101.599 218.164 95.6369C219.823 93.8801 232.925 81.2254 225.566 81.6744C223.865 81.7772 221.305 84.0515 219.741 84.7982C216.621 86.2962 213.522 87.6237 210.637 89.5813C205.636 92.9749 201.554 97.1969 197.465 101.588C186.871 112.962 177.323 125.129 172.435 140.064C171.278 143.598 170.855 147.582 169.041 150.825C167.763 153.113 166.263 153.903 163.669 155.593C159.22 158.486 154.896 161.461 150.683 164.696C161.456 148.741 168.405 130.886 176.894 113.707C187.811 91.6184 192.806 66.8291 201.99 44.0071C203.771 39.5805 205.94 34.7096 208.929 30.9417C209.838 29.7959 212.712 28.0781 212.963 26.6333C213.626 22.8218 211.044 23.8451 209.149 24.9413C204.504 27.6263 199.993 33.6827 196.819 37.7652C192.2 43.7031 187.521 50.1446 183.52 56.5424C169.734 78.5773 160.595 103.583 153.003 128.332C149.431 139.966 145.748 151.792 143.99 163.856C143.142 169.682 144.106 169.838 139.238 173.825C134.155 177.991 129.298 182.411 124.255 186.618C128.85 177.181 131.589 165.477 134.906 155.466C138.378 144.978 142.328 134.648 145.857 124.176C151.596 107.135 155.892 89.6874 160.024 72.2036C162.219 62.9077 164.276 53.6047 166.158 44.2434C168.576 32.2135 171.034 18.3228 176.427 7.22593C177.231 5.57553 180.499 -2.09274 175.771 0.54842C173.605 1.75585 171.037 9.65759 169.932 11.788C163.668 23.8872 158.391 36.1723 153.676 48.9486C145.319 71.6028 139.455 94.818 132.833 117.984C129.523 113.465 122.65 108.49 116.712 110.413C111.377 112.142 108.754 119.735 107.075 124.492C106.889 121.201 102.852 115.063 99.7043 114.853C97.9157 114.733 94.8336 116.427 93.3379 117.135C89.6401 118.883 85.44 121.095 83.1337 124.535C78.4073 131.594 79.3039 142.673 78.4642 150.842C75.9633 175.205 76.4115 198.73 79.1656 222.994C79.7947 228.546 80.5553 231.122 77.3963 235.498C73.7882 240.498 70.3097 245.414 66.7571 250.108C67.8987 247.934 66.8671 241.289 66.8539 238.971C66.8172 232.761 66.8808 226.604 67.2032 220.399C67.8646 207.619 67.1788 194.411 66.5349 181.623C65.2093 155.275 65.3298 129.263 66.2181 102.922C66.4041 97.371 66.2793 91.8547 66.2453 86.307C66.2309 84.0165 66.9888 78.4057 63.3509 79.7471C62.2946 80.1362 61.5172 84.2327 61.2105 85.2717C58.3767 94.8491 57.487 105.21 56.1891 115.046C55.0099 123.992 53.9325 132.952 53.1851 141.943C51.7492 159.214 52.2234 175.985 52.3108 193.285C52.3842 207.535 53.9293 223.029 56.5636 236.176C57.799 242.342 59.9461 249.004 60.5716 255.218C60.9511 258.96 58.7611 260.347 56.2465 263.745C53.7017 267.181 51.1882 270.644 48.7596 274.163C48.9938 268.771 47.4569 263.195 47.0962 257.8C46.7939 253.292 46.5075 248.807 46.1016 244.304C45.7788 240.757 45.4747 237.208 45.1605 233.659C43.5411 215.39 41.9596 197.162 38.9704 179.061C34.3749 151.265 29.3622 122.699 29.548 94.4218C29.5849 89.0251 29.7593 83.632 29.8217 78.2339C29.8677 74.1653 29.4936 70.129 29.4699 66.066C29.4573 63.994 30.4015 59.9872 29.7105 57.9226C27.711 51.9486 25.9787 58.6239 25.9231 61.3673C25.895 62.8129 25.8084 64.2541 25.7863 65.699C25.6527 74.7781 24.8711 83.7328 24.4228 92.8017C23.7796 105.878 24.3542 118.889 24.7885 131.958C25.2627 146.196 24.9064 160.531 26.4368 174.715C28.4106 192.999 32.3635 211.176 34.8443 229.411C35.9238 237.353 37.4296 245.207 38.2467 253.185C39.0087 260.641 41.6551 267.971 43.267 274.86L43.258 274.332C43.8827 277.259 44.863 278.723 43.9731 281.409C43.3459 283.297 41.6249 285.281 40.5942 287.015C38.396 290.703 36.2861 294.434 34.1755 298.172C36.0461 288.684 33.5106 276.713 31.5034 267.393C29.2849 257.081 26.5813 246.518 23.4164 236.461C20.9553 228.641 18.9188 220.953 18.1755 212.812C17.1853 201.97 14.2367 191.543 12.6515 180.801C11.1558 170.66 8.63696 160.618 6.49031 150.578C6.00671 148.319 3.84829 137.508 0.336726 142.385C-0.52908 143.588 0.532127 146.783 0.668154 148.027C1.00236 151.107 1.21061 154.138 1.34883 157.229C2.24496 176.861 6.35611 196.789 9.57849 216.131C11.6376 228.489 13.8181 240.892 16.8273 253.055C19.1708 262.525 20.4364 272.364 23.0358 281.701C24.2826 286.18 25.549 290.758 27.5414 294.963C29.2748 298.623 31.0221 299.645 30.4106 303.589C29.5352 309.227 24.7348 315.08 22.5686 320.539C20.797 325.002 18.9903 329.472 17.3023 333.966C14.9441 340.262 12.7342 346.669 10.6653 353.064C9.46453 356.767 7.13528 361.548 6.91718 365.316C6.58487 371.038 9.82365 369.401 11.5244 365.574C12.6685 362.997 13.582 360.227 14.6581 357.607C22.5539 338.417 29.7835 317.841 41.5732 300.621C46.4911 293.43 60.0854 291.698 68.0616 289.191C87.2494 283.152 108.006 282.356 127.915 280.149C143.969 278.372 159.762 276.739 175.479 272.791C177.775 272.216 219.668 259.882 218.617 257.731C219.203 258.938 172.784 269.268 169.067 269.573C157.41 270.523 145.79 270.778 134.107 271.272C104.885 272.509 76.1415 273.211 49.589 287.018C52.9396 281.748 56.9477 271.799 62.8293 269.759C74.1651 265.821 86.112 263.278 97.5324 259.438C109.404 255.452 121.596 252.781 133.537 249.088C145.465 245.398 157.367 241.575 169.477 238.471C181.649 235.353 194.223 232.102 206.87 232.504C211.739 232.659 216.62 233.09 221.468 233.548C223.299 233.721 237.869 236.415 229.99 233.069C224.888 230.899 218.208 230.733 212.743 229.937C206.475 229.027 200.467 228.219 194.132 228.269C180.338 228.375 166.482 231.609 153.148 234.81C137.191 238.636 120.579 242.435 105.347 248.594C91.3863 254.239 77.3543 259.659 63.3931 265.234C65.9319 261.348 68.6319 257.579 71.2733 253.762C72.5561 251.905 73.9096 248.892 75.7309 247.624C78.5108 245.687 84.3598 245.184 87.5884 244.108C100.579 239.789 113.628 234.717 126.94 231.504C148.342 226.336 170.254 223.131 191.79 218.532C204.358 215.851 217.668 213.485 230.518 213.713C235.352 213.801 240.193 213.625 244.939 214.646C246.618 215.006 248.733 215.936 250.462 216.132C255.636 216.712 251.798 214.223 248.658 213.135C223.78 204.522 196.356 211.407 171.278 214.912C154.693 217.228 138.32 219.59 122.484 225.295C107.893 230.55 93.9431 237.559 79.1096 242.174C82.9974 236.649 86.4635 230.927 92.6752 227.888C99.5492 224.527 106.794 223.065 114.296 221.791C129.894 219.133 145.386 215.731 161.034 213.416C175.408 211.293 189.757 209.409 204.005 206.51C217.879 203.684 231.671 202.034 244.912 196.694C249.105 195.003 254.187 192.072 258.664 191.816C264.465 191.485 271.49 193.223 277.179 194.085C291.035 196.18 305.418 198.34 318.227 204.205C330.795 209.961 339.329 219.007 348.95 228.463C351.982 231.448 354.964 234.482 357.987 237.474C358.66 238.141 362.676 243.149 363.504 243.213C368.629 243.597 358.963 233.441 357.295 231.359C345.768 216.979 333.293 204.985 316.336 197.15C301.884 190.472 286.775 186.128 271.015 183.904C271.055 181.056 282.666 180.914 282.984 177.963C283.405 174.028 275.281 177.966 273.67 178.45C270.612 179.368 267.638 180.516 264.565 181.385C257.51 183.379 249.704 180.923 242.536 180.003C233.895 178.899 225.139 178.175 216.448 177.651C187.678 175.916 160.074 176.871 132.13 184.58C137.144 180.188 142.375 176.014 147.675 171.972C149.738 170.399 151.311 168.958 153.649 168.22C157.598 166.972 162.286 167.53 166.402 167.127C182.674 165.54 198.871 163.756 215.233 163.254C242.16 162.427 270.234 167.261 295.77 175.821C308.228 179.999 320.45 184.061 331.267 191.752C333.771 193.53 335.998 195.571 338.274 197.626C339.215 198.475 344.96 204.652 345.252 204.619C347.744 204.353 336.19 191.568 334.511 189.935C311.949 168.006 282.674 163.02 252.781 158.617C221.522 154.012 190.145 156.458 159.348 163.407C165.498 159.57 171.542 152.994 178.446 150.762C183.69 149.067 190.346 149.389 195.652 148.845C211.04 147.263 227.169 149.95 242.59 151.042C260.011 152.274 276.934 154.508 293.778 159.149C302.396 161.524 310.788 164.038 319.196 167.122C325.86 169.566 331.297 171.071 336.689 175.537C338.864 177.355 345.335 182.183 348.836 185.465C350.263 186.806 351.743 189.638 353.357 190.311C359.369 192.82 351.389 183.024 350.079 181.324C354.858 184.179 359.32 187.485 363.562 191.004C364.402 191.703 365.205 192.236 366.055 192.873C367.052 193.624 367.574 195.815 369.282 195.084C370.673 194.487 370.18 193.053 369.515 192.147Z" fill="#012A32"/>
</svg>
